<svg width="18" height="20" viewBox="0 0 18 20" fill="none" xmlns="http://www.w3.org/2000/svg">
<path fill-rule="evenodd" clip-rule="evenodd" d="M4.87524 2.54187C5.9692 1.44791 7.45293 0.833328 9.00002 0.833328C10.5471 0.833328 12.0309 1.44791 13.1248 2.54187C14.2188 3.63583 14.8334 5.11957 14.8334 6.66666C14.8334 9.46054 15.4309 11.1955 15.9816 12.2051C16.2581 12.712 16.5273 13.0446 16.7144 13.242C16.8081 13.3409 16.8817 13.4065 16.9261 13.4435C16.9483 13.462 16.9632 13.4733 16.9696 13.4781C16.9706 13.4788 16.9714 13.4794 16.9719 13.4798C17.2707 13.685 17.4029 14.0604 17.2976 14.4081C17.1912 14.7596 16.8672 15 16.5 15H1.50002C1.1328 15 0.808863 14.7596 0.702447 14.4081C0.597162 14.0604 0.729361 13.685 1.0281 13.4798C1.02868 13.4794 1.02948 13.4788 1.03048 13.4781C1.0369 13.4733 1.05177 13.462 1.07396 13.4435C1.11831 13.4065 1.19196 13.3409 1.28569 13.242C1.47271 13.0446 1.74195 12.712 2.01844 12.2051C2.56913 11.1955 3.16669 9.46054 3.16669 6.66666C3.16669 5.11957 3.78127 3.63583 4.87524 2.54187ZM1.03652 13.4741C1.03659 13.4741 1.03665 13.474 1.03672 13.474C1.03672 13.474 1.03671 13.474 1.03671 13.474L1.03652 13.4741ZM3.29113 13.3333H14.7089C14.6455 13.2294 14.5819 13.1195 14.5184 13.0032C13.8191 11.7211 13.1667 9.70611 13.1667 6.66666C13.1667 5.56159 12.7277 4.50178 11.9463 3.72038C11.1649 2.93898 10.1051 2.49999 9.00002 2.49999C7.89496 2.49999 6.83515 2.93898 6.05375 3.72038C5.27234 4.50178 4.83336 5.56159 4.83336 6.66666C4.83336 9.70611 4.18091 11.7211 3.4816 13.0032C3.41819 13.1195 3.35453 13.2294 3.29113 13.3333ZM7.14021 16.7792C7.53832 16.5482 8.04826 16.6837 8.27919 17.0819C8.35245 17.2081 8.45759 17.313 8.5841 17.3858C8.7106 17.4587 8.85403 17.497 9.00002 17.497C9.14602 17.497 9.28945 17.4587 9.41595 17.3858C9.54246 17.313 9.6476 17.2081 9.72086 17.0819C9.95179 16.6837 10.4617 16.5482 10.8598 16.7792C11.2579 17.0101 11.3935 17.52 11.1625 17.9181C10.9428 18.297 10.6273 18.6115 10.2478 18.8301C9.86829 19.0486 9.438 19.1637 9.00002 19.1637C8.56205 19.1637 8.13176 19.0486 7.75224 18.8301C7.37272 18.6115 7.05729 18.297 6.83752 17.9181C6.60659 17.52 6.74211 17.0101 7.14021 16.7792Z" fill="#344054"/>
</svg>
