<svg width="24" height="24" viewBox="0 0 24 24" fill="none" xmlns="http://www.w3.org/2000/svg">
<path fill-rule="evenodd" clip-rule="evenodd" d="M6.5 3.5H4C3.17157 3.5 2.5 4.17157 2.5 5V20C2.5 20.8284 3.17157 21.5 4 21.5H13V19.5H4.5V12H21.5V5C21.5 4.17157 20.8284 3.5 20 3.5H17.5V2.5H16.5V3.5H7.5V2.5H6.5V3.5ZM16.5 6.5V5.5H7.5V6.5H6.5V5.5H4.5V10H19.5V5.5H17.5V6.5H16.5Z" fill="#475467"/>
<path fill-rule="evenodd" clip-rule="evenodd" d="M18 22C20.4853 22 22.5 19.9853 22.5 17.5C22.5 15.0147 20.4853 13 18 13C15.5147 13 13.5 15.0147 13.5 17.5C13.5 19.9853 15.5147 22 18 22ZM18.7499 17.125V14.5H17.2499V18.625H20.9999V17.125H18.7499Z" fill="#475467"/>
</svg>
