<svg width="56" height="96" viewBox="0 0 56 96" fill="none" xmlns="http://www.w3.org/2000/svg">
<path d="M28 18C22.5 18 18 22.5 18 28C18 33.5 22.5 38 28 38C33.5 38 38 33.5 38 28C38 22.5 33.5 18 28 18ZM26 33L21 28L22.41 26.59L26 30.17L33.59 22.58L35 24L26 33Z" fill="#D0D5DD"/>
<path d="M28 58C22.5 58 18 62.5 18 68C18 73.5 22.5 78 28 78C33.5 78 38 73.5 38 68C38 62.5 33.5 58 28 58ZM26 73L21 68L22.41 66.59L26 70.17L33.59 62.58L35 64L26 73Z" fill="#628342"/>
<rect x="0.5" y="0.5" width="55" height="95" rx="4.5" stroke="#9747FF" stroke-dasharray="10 5"/>
</svg>
