<svg width="24" height="24" viewBox="0 0 24 24" fill="none" xmlns="http://www.w3.org/2000/svg">
<path fill-rule="evenodd" clip-rule="evenodd" d="M2 5C2 3.89543 2.89543 3 4 3H20C21.1046 3 22 3.89543 22 5V19C22 20.1046 21.1046 21 20 21H4C2.89543 21 2 20.1046 2 19V5ZM20 5L4 5V19H20V5ZM10 9.5H5.5V7.5H10V9.5ZM10 13H5.5V11H10V13ZM8 16.5H5.5V14.5H8V16.5ZM14.5 14C13.1193 14 12 15.1193 12 16.5H10C10 14.6631 11.1007 13.0832 12.6785 12.3839C11.9621 11.8357 11.5 10.9718 11.5 10C11.5 8.34315 12.8431 7 14.5 7C16.1569 7 17.5 8.34315 17.5 10C17.5 10.9718 17.0379 11.8357 16.3215 12.3839C17.8993 13.0832 19 14.6631 19 16.5H17C17 15.1193 15.8807 14 14.5 14ZM13.5 10C13.5 9.44772 13.9477 9 14.5 9C15.0523 9 15.5 9.44772 15.5 10C15.5 10.5523 15.0523 11 14.5 11C13.9477 11 13.5 10.5523 13.5 10Z" fill="#475467"/>
</svg>
