<svg width="20" height="20" viewBox="0 0 20 20" fill="none" xmlns="http://www.w3.org/2000/svg">
<path d="M20 6.25648C20 6.01759 20 5.7787 19.9991 5.53981C19.9981 5.33889 19.9954 5.13704 19.9898 4.93611C19.9778 4.49815 19.9519 4.05556 19.8741 3.62222C19.7954 3.18241 19.6657 2.77315 19.462 2.37315C19.262 1.98056 19.0009 1.6213 18.6898 1.30926C18.3778 0.998148 18.0194 0.737037 17.6259 0.537037C17.2269 0.333333 16.8176 0.20463 16.3778 0.125926C15.9444 0.0481482 15.5019 0.0222222 15.0639 0.0101852C14.863 0.00462963 14.6611 0.00277778 14.4602 0.000925926C14.2213 0 13.9824 0 13.7435 0H6.25648C6.01759 0 5.7787 0 5.53982 0.000925926C5.33889 0.00185185 5.13704 0.00462963 4.93611 0.0101852C4.49815 0.0222222 4.05556 0.0481482 3.62222 0.125926C3.18241 0.20463 2.77315 0.334259 2.37407 0.537037C1.98148 0.737037 1.6213 0.998148 1.31019 1.30926C0.998148 1.6213 0.737963 1.97963 0.537963 2.37315C0.334259 2.77315 0.205556 3.18241 0.125926 3.62222C0.0481482 4.05556 0.0222222 4.49815 0.0111111 4.93611C0.00555556 5.13704 0.00277778 5.33889 0.00185185 5.53981C0 5.7787 0 6.01759 0 6.25648V13.7435C0 13.9824 0 14.2213 0.00185185 14.4602C0.00277778 14.6611 0.00555556 14.863 0.0111111 15.0639C0.0231482 15.5019 0.0490741 15.9444 0.126852 16.3778C0.205556 16.8176 0.335185 17.2278 0.538889 17.6269C0.738889 18.0194 1 18.3787 1.31111 18.6898C1.62222 19.0019 1.98148 19.263 2.375 19.463C2.77407 19.6667 3.18333 19.7954 3.62315 19.8741C4.05648 19.9519 4.49907 19.9778 4.93704 19.9898C5.13796 19.9954 5.33982 19.9972 5.54074 19.9991C5.77963 20 6.01852 20 6.25741 20H13.7444C13.9833 20 14.2222 20 14.4611 19.9991C14.662 19.9981 14.8639 19.9954 15.0648 19.9898C15.5028 19.9778 15.9454 19.9519 16.3787 19.8741C16.8185 19.7954 17.2278 19.6657 17.6269 19.463C18.0194 19.263 18.3787 19.0019 18.6907 18.6898C19.0028 18.3787 19.263 18.0194 19.463 17.6269C19.6667 17.2269 19.7954 16.8176 19.875 16.3778C19.9528 15.9444 19.9787 15.5028 19.9907 15.0639C19.9963 14.863 19.9981 14.6611 20 14.4602C20.0009 14.2213 20.0009 13.9824 20.0009 13.7435V6.25648H20Z" fill="white"/>
<path d="M7.46472 16.3621V7.05743H7.07398L4.70361 8.62688V9.0241L7.04713 7.48984H7.07491V16.363H7.46472V16.3621Z" fill="black"/>
<path d="M9.78027 7.05743V7.41392H14.8914V7.44169L10.7868 16.363H11.2256L15.296 7.43429V7.05743H9.78027Z" fill="black"/>
<path d="M3.63406 5.23238V3.22034H3.64146L4.43683 5.02683H4.70072L5.49332 3.22034H5.50257V5.23238H5.76646V2.56757H5.48683L4.57387 4.70275H4.56646L3.65072 2.56849H3.37109V5.23238H3.63406Z" fill="#FF0000"/>
<path d="M7.2007 3.15369C6.64422 3.15369 6.33496 3.55832 6.33496 4.10646V4.30739C6.33496 4.85832 6.64144 5.2648 7.2007 5.2648C7.75903 5.2648 8.06366 4.85832 8.06366 4.30739V4.10646C8.06459 3.55832 7.75533 3.15369 7.2007 3.15369ZM7.2007 3.40554C7.56366 3.40554 7.77663 3.67683 7.77663 4.12035V4.29258C7.77663 4.73795 7.56366 5.00924 7.2007 5.00924C6.83496 5.00924 6.62292 4.73609 6.62292 4.29258V4.12035C6.62292 3.67776 6.83589 3.40554 7.2007 3.40554Z" fill="#FF0000"/>
<path d="M8.60205 5.23241H8.88909V3.97963C8.88909 3.68704 9.04927 3.41667 9.42427 3.41667C9.74464 3.41667 9.9502 3.61019 9.9502 3.95926V5.23056H10.2372V3.91574C10.2372 3.41945 9.92242 3.15186 9.50112 3.15186C9.16501 3.15186 8.97335 3.32778 8.89742 3.46482H8.88909V3.18519H8.60205V5.23241Z" fill="#FF0000"/>
<path d="M11.5583 3.15184C11.0499 3.15184 10.7397 3.54814 10.7397 4.10277V4.31203C10.7397 4.87684 11.0268 5.26295 11.5583 5.26295C11.8518 5.26295 12.062 5.1148 12.1712 4.91295H12.1786V5.23147H12.4499V2.42499H12.1629V3.47962H12.1555C12.0564 3.30277 11.8453 3.15184 11.5583 3.15184ZM11.5842 3.40832C11.9472 3.40832 12.1703 3.69351 12.1703 4.11573V4.30554C12.1703 4.74536 11.9536 5.00832 11.5879 5.00832C11.2638 5.00832 11.0277 4.77221 11.0277 4.30369V4.11851C11.0268 3.64073 11.2675 3.40832 11.5842 3.40832Z" fill="#FF0000"/>
<path d="M14.227 4.96665H14.2344V5.23239H14.514V3.81017C14.514 3.3898 14.2057 3.15369 13.7797 3.15369C13.3057 3.15369 13.0612 3.40183 13.0371 3.75739H13.3084C13.3316 3.54072 13.4862 3.40183 13.7677 3.40183C14.0584 3.40183 14.227 3.55646 14.227 3.8435V4.06387H13.6705C13.2038 4.06572 12.9575 4.29258 12.9575 4.64628C12.9575 5.02128 13.2288 5.26572 13.626 5.26572C13.9381 5.2648 14.1288 5.13054 14.227 4.96665ZM13.6936 5.01758C13.4631 5.01758 13.2538 4.89443 13.2538 4.64072C13.2538 4.44165 13.3807 4.29906 13.6797 4.29906H14.227V4.55091C14.227 4.82591 13.9983 5.01758 13.6936 5.01758Z" fill="#FF0000"/>
<path d="M16.6288 3.18707H16.3224L15.7381 4.89818H15.7279L15.1437 3.18707H14.8242L15.5881 5.26485L15.5492 5.38985C15.489 5.60096 15.3853 5.72411 15.1446 5.72411C15.1001 5.72411 15.027 5.71855 14.9946 5.71207V5.95652C15.0455 5.96392 15.1214 5.97226 15.19 5.97226C15.5881 5.97226 15.7251 5.69911 15.8326 5.40374L15.8909 5.25096L16.6288 3.18707Z" fill="#FF0000"/>
</svg>
