<svg width="20" height="20" viewBox="0 0 20 20" fill="none" xmlns="http://www.w3.org/2000/svg">
<g filter="url(#filter0_d_4448_8584)">
<g clip-path="url(#clip0_4448_8584)">
<rect x="12" y="8" width="20" height="20" rx="5" fill="white"/>
<path d="M32 14.2565C32 14.0176 32 13.7787 31.9991 13.5398C31.9981 13.3389 31.9954 13.137 31.9898 12.9361C31.9778 12.4981 31.9519 12.0556 31.8741 11.6222C31.7954 11.1824 31.6657 10.7731 31.462 10.3731C31.262 9.98056 31.0009 9.6213 30.6898 9.30926C30.3778 8.99815 30.0194 8.73704 29.6259 8.53704C29.2269 8.33333 28.8176 8.20463 28.3778 8.12593C27.9444 8.04815 27.5019 8.02222 27.0639 8.01019C26.863 8.00463 26.6611 8.00278 26.4602 8.00093C26.2213 8 25.9824 8 25.7435 8H18.2565C18.0176 8 17.7787 8 17.5398 8.00093C17.3389 8.00185 17.137 8.00463 16.9361 8.01019C16.4981 8.02222 16.0556 8.04815 15.6222 8.12593C15.1824 8.20463 14.7731 8.33426 14.3741 8.53704C13.9815 8.73704 13.6213 8.99815 13.3102 9.30926C12.9981 9.6213 12.738 9.97963 12.538 10.3731C12.3343 10.7731 12.2056 11.1824 12.1259 11.6222C12.0481 12.0556 12.0222 12.4981 12.0111 12.9361C12.0056 13.137 12.0028 13.3389 12.0019 13.5398C12 13.7787 12 14.0176 12 14.2565V21.7435C12 21.9824 12 22.2213 12.0019 22.4602C12.0028 22.6611 12.0056 22.863 12.0111 23.0639C12.0231 23.5019 12.0491 23.9444 12.1269 24.3778C12.2056 24.8176 12.3352 25.2278 12.5389 25.6269C12.7389 26.0194 13 26.3787 13.3111 26.6898C13.6222 27.0019 13.9815 27.263 14.375 27.463C14.7741 27.6667 15.1833 27.7954 15.6231 27.8741C16.0565 27.9519 16.4991 27.9778 16.937 27.9898C17.138 27.9954 17.3398 27.9972 17.5407 27.9991C17.7796 28 18.0185 28 18.2574 28H25.7444C25.9833 28 26.2222 28 26.4611 27.9991C26.662 27.9981 26.8639 27.9954 27.0648 27.9898C27.5028 27.9778 27.9454 27.9519 28.3787 27.8741C28.8185 27.7954 29.2278 27.6657 29.6269 27.463C30.0194 27.263 30.3787 27.0019 30.6907 26.6898C31.0028 26.3787 31.263 26.0194 31.463 25.6269C31.6667 25.2269 31.7954 24.8176 31.875 24.3778C31.9528 23.9444 31.9787 23.5028 31.9907 23.0639C31.9963 22.863 31.9982 22.6611 32 22.4602C32.0009 22.2213 32.0009 21.9824 32.0009 21.7435V14.2565H32Z" fill="white"/>
<path d="M19.4647 24.3621V15.0574H19.074L16.7036 16.6269V17.0241L19.0471 15.4898H19.0749V24.363H19.4647V24.3621Z" fill="black"/>
<path d="M21.7803 15.0574V15.4139H26.8914V15.4417L22.7868 24.363H23.2256L27.296 15.4343V15.0574H21.7803Z" fill="black"/>
<path d="M15.6341 13.2324V11.2203H15.6415L16.4368 13.0268H16.7007L17.4933 11.2203H17.5026V13.2324H17.7665V10.5676H17.4868L16.5739 12.7028H16.5665L15.6507 10.5685H15.3711V13.2324H15.6341V13.2324Z" fill="#FF0000"/>
<path d="M19.2007 11.1537C18.6442 11.1537 18.335 11.5583 18.335 12.1065V12.3074C18.335 12.8583 18.6414 13.2648 19.2007 13.2648C19.759 13.2648 20.0637 12.8583 20.0637 12.3074V12.1065C20.0646 11.5583 19.7553 11.1537 19.2007 11.1537ZM19.2007 11.4055C19.5637 11.4055 19.7766 11.6768 19.7766 12.1204V12.2926C19.7766 12.7379 19.5637 13.0092 19.2007 13.0092C18.835 13.0092 18.6229 12.7361 18.6229 12.2926V12.1204C18.6229 11.6778 18.8359 11.4055 19.2007 11.4055Z" fill="#FF0000"/>
<path d="M20.6021 13.2324H20.8891V11.9796C20.8891 11.687 21.0493 11.4167 21.4243 11.4167C21.7446 11.4167 21.9502 11.6102 21.9502 11.9593V13.2306H22.2372V11.9157C22.2372 11.4194 21.9224 11.1519 21.5011 11.1519C21.165 11.1519 20.9733 11.3278 20.8974 11.4648H20.8891V11.1852H20.6021V13.2324Z" fill="#FF0000"/>
<path d="M23.5583 11.1518C23.0499 11.1518 22.7397 11.5481 22.7397 12.1028V12.312C22.7397 12.8768 23.0268 13.263 23.5583 13.263C23.8518 13.263 24.062 13.1148 24.1712 12.913H24.1786V13.2315H24.4499V10.425H24.1629V11.4796H24.1555C24.0564 11.3028 23.8453 11.1518 23.5583 11.1518ZM23.5842 11.4083C23.9472 11.4083 24.1703 11.6935 24.1703 12.1157V12.3055C24.1703 12.7454 23.9536 13.0083 23.5879 13.0083C23.2638 13.0083 23.0277 12.7722 23.0277 12.3037V12.1185C23.0268 11.6407 23.2675 11.4083 23.5842 11.4083Z" fill="#FF0000"/>
<path d="M26.227 12.9666H26.2344V13.2324H26.514V11.8102C26.514 11.3898 26.2057 11.1537 25.7797 11.1537C25.3057 11.1537 25.0612 11.4018 25.0371 11.7574H25.3084C25.3316 11.5407 25.4862 11.4018 25.7677 11.4018C26.0584 11.4018 26.227 11.5565 26.227 11.8435V12.0639H25.6705C25.2038 12.0657 24.9575 12.2926 24.9575 12.6463C24.9575 13.0213 25.2288 13.2657 25.626 13.2657C25.9381 13.2648 26.1288 13.1305 26.227 12.9666ZM25.6936 13.0176C25.4631 13.0176 25.2538 12.8944 25.2538 12.6407C25.2538 12.4416 25.3807 12.2991 25.6797 12.2991H26.227V12.5509C26.227 12.8259 25.9983 13.0176 25.6936 13.0176Z" fill="#FF0000"/>
<path d="M28.6288 11.1871H28.3224L27.7381 12.8982H27.7279L27.1437 11.1871H26.8242L27.5881 13.2648L27.5492 13.3898C27.489 13.601 27.3853 13.7241 27.1446 13.7241C27.1001 13.7241 27.027 13.7186 26.9946 13.7121V13.9565C27.0455 13.9639 27.1214 13.9723 27.19 13.9723C27.5881 13.9723 27.7251 13.6991 27.8326 13.4037L27.8909 13.251L28.6288 11.1871Z" fill="#FF0000"/>
</g>
</g>
<defs>
<filter id="filter0_d_4448_8584" x="0" y="0" width="20" height="20" filterUnits="userSpaceOnUse" color-interpolation-filters="sRGB">
<feFlood flood-opacity="0" result="BackgroundImageFix"/>
<feColorMatrix in="SourceAlpha" type="matrix" values="0 0 0 0 0 0 0 0 0 0 0 0 0 0 0 0 0 0 127 0" result="hardAlpha"/>
<feOffset dy="4"/>
<feGaussianBlur stdDeviation="6"/>
<feColorMatrix type="matrix" values="0 0 0 0 0 0 0 0 0 0 0 0 0 0 0 0 0 0 0.1 0"/>
<feBlend mode="normal" in2="BackgroundImageFix" result="effect1_dropShadow_4448_8584"/>
<feBlend mode="normal" in="SourceGraphic" in2="effect1_dropShadow_4448_8584" result="shape"/>
</filter>
<clipPath id="clip0_4448_8584">
<rect x="12" y="8" width="20" height="20" rx="5" fill="white"/>
</clipPath>
</defs>
</svg>
