<svg width="30" height="34" viewBox="0 0 30 34" fill="none" xmlns="http://www.w3.org/2000/svg">
<path fill-rule="evenodd" clip-rule="evenodd" d="M15 3.66659C12.2386 3.66659 10 5.90516 10 8.66659C10 11.428 12.2386 13.6666 15 13.6666C17.7614 13.6666 20 11.428 20 8.66659C20 5.90516 17.7614 3.66659 15 3.66659ZM6.66667 8.66659C6.66667 4.06421 10.3976 0.333252 15 0.333252C19.6024 0.333252 23.3333 4.06421 23.3333 8.66659C23.3333 13.269 19.6024 16.9999 15 16.9999C10.3976 16.9999 6.66667 13.269 6.66667 8.66659ZM2.44078 22.774C4.00358 21.2112 6.1232 20.3333 8.33333 20.3333H21.6667C23.8768 20.3333 25.9964 21.2112 27.5592 22.774C29.122 24.3368 30 26.4564 30 28.6666V31.9999C30 32.9204 29.2538 33.6666 28.3333 33.6666C27.4129 33.6666 26.6667 32.9204 26.6667 31.9999V28.6666C26.6667 27.3405 26.1399 26.0687 25.2022 25.1311C24.2645 24.1934 22.9927 23.6666 21.6667 23.6666H8.33333C7.00725 23.6666 5.73548 24.1934 4.7978 25.1311C3.86012 26.0687 3.33333 27.3405 3.33333 28.6666V31.9999C3.33333 32.9204 2.58714 33.6666 1.66667 33.6666C0.746192 33.6666 0 32.9204 0 31.9999V28.6666C0 26.4564 0.877973 24.3368 2.44078 22.774Z" fill="#475467"/>
</svg>
