<svg width="20" height="20" viewBox="0 0 20 20" fill="none" xmlns="http://www.w3.org/2000/svg">
<g clip-path="url(#clip0_4448_8600)">
<path d="M10.4669 0.0350342H11.8238C11.8238 1.54844 11.8238 3.05958 11.8238 4.57299C14.1744 4.57752 16.5228 4.56618 18.8712 4.57299C19.3341 4.5503 19.9671 4.68417 19.958 5.26729C20.0443 8.13755 19.9603 11.0146 19.9989 13.8871C20.0079 14.3954 19.9921 15.1963 19.3 15.2031C16.811 15.2894 14.3151 15.2099 11.8238 15.2372C11.8238 16.6734 11.8238 18.112 11.8238 19.5482H10.417C6.95907 18.9197 3.49207 18.3411 0.0296127 17.733C0.0273438 12.4395 0.0273438 7.14601 0.0273438 1.85475C3.50795 1.2444 6.98856 0.654465 10.4669 0.0350342Z" fill="#0071C5"/>
<path d="M11.8237 5.25375C14.3378 5.25602 16.8495 5.24694 19.3635 5.25829C19.3204 5.55552 19.2297 5.84822 18.9801 6.03428C17.478 7.43424 15.985 8.841 14.4875 10.2455C13.5867 9.43093 12.7109 8.58914 11.8237 7.76097C11.8237 6.92372 11.8237 6.08873 11.8237 5.25375Z" fill="white"/>
<path d="M4.89175 6.08415C6.17145 5.60086 7.6667 6.27928 8.20899 7.51587C8.94868 9.21761 8.8443 11.5456 7.37401 12.8321C6.01943 13.9915 3.74818 13.3313 3.13102 11.684C2.31873 9.78485 2.71353 6.86241 4.89175 6.08415Z" fill="white"/>
<path d="M15.1996 10.4474C16.5632 9.15183 17.9382 7.86532 19.3087 6.57654C19.3155 9.23578 19.3087 11.8973 19.3109 14.5565C16.8151 14.5565 14.3192 14.5565 11.8233 14.5565C11.8233 12.578 11.8211 10.5994 11.8256 8.62315C12.6719 9.37192 13.4298 10.2251 14.3283 10.908C14.6981 10.9761 14.9477 10.6562 15.1996 10.4474Z" fill="white"/>
<path d="M5.11208 7.44783C5.71563 7.15967 6.4712 7.45237 6.75482 8.04911C7.20862 8.94763 7.20635 10.0435 6.90911 10.992C6.6981 11.6659 5.96068 12.2218 5.24595 11.9563C4.35424 11.6749 4.08424 10.6176 4.07516 9.78942C4.06382 8.93175 4.26122 7.86306 5.11208 7.44783Z" fill="#0071C5"/>
</g>
<defs>
<clipPath id="clip0_4448_8600">
<rect width="20" height="20" fill="white"/>
</clipPath>
</defs>
</svg>
