<svg width="24" height="24" viewBox="0 0 24 24" fill="none" xmlns="http://www.w3.org/2000/svg">
<path fill-rule="evenodd" clip-rule="evenodd" d="M11 2.5V13.5H13V2.5H11ZM4.5 12.0001C4.5 9.22526 6.00636 6.80111 8.25073 5.50281L7.24927 3.7716C4.41233 5.41269 2.5 8.48246 2.5 12.0001C2.5 17.2468 6.75329 21.5001 12 21.5001C17.2467 21.5001 21.5 17.2468 21.5 12.0001C21.5 8.48246 19.5877 5.41269 16.7507 3.7716L15.7493 5.50281C17.9936 6.80111 19.5 9.22526 19.5 12.0001C19.5 16.1422 16.1421 19.5001 12 19.5001C7.85786 19.5001 4.5 16.1422 4.5 12.0001Z" fill="#475467"/>
</svg>
