<svg width="80" height="16" viewBox="0 0 80 16" fill="none" xmlns="http://www.w3.org/2000/svg">
<path d="M7.7418 12.0026C7.90069 11.9067 8.09963 11.9067 8.25853 12.0026L11.1057 13.721C11.4843 13.9495 11.9514 13.61 11.851 13.1793L11.0954 9.94053C11.0532 9.75978 11.1146 9.57055 11.2549 9.44902L13.7711 7.26924C14.1054 6.97963 13.9267 6.4305 13.486 6.39311L10.1739 6.11211C9.98914 6.09644 9.82821 5.97977 9.75584 5.80902L8.46052 2.75281C8.28823 2.3463 7.7121 2.3463 7.5398 2.75281L6.24449 5.80902C6.17212 5.97977 6.01119 6.09644 5.8264 6.11211L2.51431 6.39311C2.0736 6.4305 1.89489 6.97963 2.22919 7.26924L4.74539 9.44902C4.88568 9.57055 4.9471 9.75978 4.90493 9.94053L4.14937 13.1793C4.04889 13.61 4.516 13.9495 4.89466 13.721L7.7418 12.0026Z" fill="#FDB022"/>
<path d="M23.7418 12.0026C23.9007 11.9067 24.0996 11.9067 24.2585 12.0026L27.1057 13.721C27.4843 13.9495 27.9514 13.61 27.851 13.1793L27.0954 9.94053C27.0532 9.75978 27.1146 9.57055 27.2549 9.44902L29.7711 7.26924C30.1054 6.97963 29.9267 6.4305 29.486 6.39311L26.1739 6.11211C25.9891 6.09644 25.8282 5.97977 25.7558 5.80902L24.4605 2.75281C24.2882 2.3463 23.7121 2.3463 23.5398 2.75281L22.2445 5.80902C22.1721 5.97977 22.0112 6.09644 21.8264 6.11211L18.5143 6.39311C18.0736 6.4305 17.8949 6.97963 18.2292 7.26924L20.7454 9.44902C20.8857 9.57055 20.9471 9.75978 20.9049 9.94053L20.1494 13.1793C20.0489 13.61 20.516 13.9495 20.8947 13.721L23.7418 12.0026Z" fill="#FDB022"/>
<path d="M39.7418 12.0026C39.9007 11.9067 40.0996 11.9067 40.2585 12.0026L43.1057 13.721C43.4843 13.9495 43.9514 13.61 43.851 13.1793L43.0954 9.94053C43.0532 9.75978 43.1146 9.57055 43.2549 9.44902L45.7711 7.26924C46.1054 6.97963 45.9267 6.4305 45.486 6.39311L42.1739 6.11211C41.9891 6.09644 41.8282 5.97977 41.7558 5.80902L40.4605 2.75281C40.2882 2.3463 39.7121 2.3463 39.5398 2.75281L38.2445 5.80902C38.1721 5.97977 38.0112 6.09644 37.8264 6.11211L34.5143 6.39311C34.0736 6.4305 33.8949 6.97963 34.2292 7.26924L36.7454 9.44902C36.8857 9.57055 36.9471 9.75978 36.9049 9.94053L36.1494 13.1793C36.0489 13.61 36.516 13.9495 36.8947 13.721L39.7418 12.0026Z" fill="#FDB022"/>
<g opacity="0.1">
<path d="M55.7418 12.0026C55.9007 11.9067 56.0996 11.9067 56.2585 12.0026L59.1057 13.721C59.4843 13.9495 59.9514 13.61 59.851 13.1793L59.0954 9.94053C59.0532 9.75978 59.1146 9.57055 59.2549 9.44902L61.7711 7.26924C62.1054 6.97963 61.9267 6.4305 61.486 6.39311L58.1739 6.11211C57.9891 6.09644 57.8282 5.97977 57.7558 5.80902L56.4605 2.75281C56.2882 2.3463 55.7121 2.3463 55.5398 2.75281L54.2445 5.80902C54.1721 5.97977 54.0112 6.09644 53.8264 6.11211L50.5143 6.39311C50.0736 6.4305 49.8949 6.97963 50.2292 7.26924L52.7454 9.44902C52.8857 9.57055 52.9471 9.75978 52.9049 9.94053L52.1494 13.1793C52.0489 13.61 52.516 13.9495 52.8947 13.721L55.7418 12.0026Z" fill="#FDB022"/>
</g>
<g opacity="0.1">
<path d="M71.7418 12.0026C71.9007 11.9067 72.0996 11.9067 72.2585 12.0026L75.1057 13.721C75.4843 13.9495 75.9514 13.61 75.851 13.1793L75.0954 9.94053C75.0532 9.75978 75.1146 9.57055 75.2549 9.44902L77.7711 7.26924C78.1054 6.97963 77.9267 6.4305 77.486 6.39311L74.1739 6.11211C73.9891 6.09644 73.8282 5.97977 73.7558 5.80902L72.4605 2.75281C72.2882 2.3463 71.7121 2.3463 71.5398 2.75281L70.2445 5.80902C70.1721 5.97977 70.0112 6.09644 69.8264 6.11211L66.5143 6.39311C66.0736 6.4305 65.8949 6.97963 66.2292 7.26924L68.7454 9.44902C68.8857 9.57055 68.9471 9.75978 68.9049 9.94053L68.1494 13.1793C68.0489 13.61 68.516 13.9495 68.8947 13.721L71.7418 12.0026Z" fill="#FDB022"/>
</g>
</svg>
