<svg width="16" height="16" viewBox="0 0 16 16" fill="none" xmlns="http://www.w3.org/2000/svg">
<path d="M7.7418 12.0026C7.90069 11.9067 8.09963 11.9067 8.25853 12.0026L11.1057 13.721C11.4843 13.9495 11.9514 13.61 11.851 13.1793L11.0954 9.94053C11.0532 9.75978 11.1146 9.57055 11.2549 9.44902L13.7711 7.26924C14.1054 6.97963 13.9267 6.4305 13.486 6.39311L10.1739 6.11211C9.98914 6.09644 9.82821 5.97977 9.75584 5.80902L8.46052 2.75281C8.28823 2.3463 7.7121 2.3463 7.5398 2.75281L6.24449 5.80902C6.17212 5.97977 6.01119 6.09644 5.8264 6.11211L2.51431 6.39311C2.0736 6.4305 1.89489 6.97963 2.22919 7.26924L4.74539 9.44902C4.88568 9.57055 4.9471 9.75978 4.90493 9.94053L4.14937 13.1793C4.04889 13.61 4.516 13.9495 4.89466 13.721L7.7418 12.0026Z" fill="#FDB022"/>
</svg>
