<svg width="24" height="24" viewBox="0 0 24 24" fill="none" xmlns="http://www.w3.org/2000/svg">
<path fill-rule="evenodd" clip-rule="evenodd" d="M8.43465 3.09853C8.61499 2.4493 9.20611 2 9.87992 2H14.1198C14.7936 2 15.3848 2.4493 15.5651 3.09853L16.0764 4.93928L17.9264 4.46169C18.5788 4.29325 19.2635 4.58053 19.6004 5.16407L21.7203 8.83594C22.0572 9.41947 21.9637 10.1561 21.4916 10.6369L20.1532 12L21.4916 13.3632C21.9637 13.844 22.0572 14.5805 21.7203 15.1641L19.6004 18.8359C19.2635 19.4195 18.5788 19.7068 17.9264 19.5383L16.0764 19.0607L15.5651 20.9015C15.3848 21.5507 14.7936 22 14.1198 22H9.87992C9.20611 22 8.61499 21.5507 8.43465 20.9015L7.92336 19.0608L6.07381 19.5383C5.42138 19.7068 4.73671 19.4195 4.39981 18.8359L2.27985 15.1641C1.94295 14.5805 2.03649 13.8439 2.50857 13.3632L3.84701 12L2.50857 10.6369C2.0365 10.1561 1.94295 9.41948 2.27985 8.83594L4.39981 5.16407C4.73672 4.58053 5.42139 4.29325 6.07381 4.46169L7.92336 4.93918L8.43465 3.09853ZM7.79196 18.5878L7.79214 18.5885L7.79196 18.5878ZM10.26 4L9.71899 5.94749C9.50013 6.73539 8.69053 7.20282 7.89876 6.99841L5.94184 6.49319L4.20193 9.50681L5.61805 10.9491C6.19096 11.5326 6.19096 12.4674 5.61805 13.0509L4.20192 14.4932L5.94184 17.5068L7.89876 17.0016C8.69054 16.7972 9.50014 17.2646 9.719 18.0525L10.26 20H13.7398L14.2808 18.0524C14.4997 17.2645 15.3093 16.7971 16.101 17.0015L18.0583 17.5068L19.7982 14.4932L18.3821 13.0509C17.8092 12.4674 17.8092 11.5326 18.3821 10.9491L19.7982 9.50681L18.0583 6.49319L16.101 6.99851C15.3093 7.20292 14.4997 6.73549 14.2808 5.94759L13.7398 4H10.26ZM10.3615 3.63448L10.3617 3.63382L10.3615 3.63448ZM11.9999 10C10.8953 10 9.99988 10.8954 9.99988 12C9.99988 13.1046 10.8953 14 11.9999 14C13.1044 14 13.9999 13.1046 13.9999 12C13.9999 10.8954 13.1044 10 11.9999 10ZM7.99988 12C7.99988 9.79086 9.79074 8 11.9999 8C14.209 8 15.9999 9.79086 15.9999 12C15.9999 14.2091 14.209 16 11.9999 16C9.79074 16 7.99988 14.2091 7.99988 12Z" fill="#475467"/>
</svg>
