<svg width="12" height="12" viewBox="0 0 12 12" fill="none" xmlns="http://www.w3.org/2000/svg">
<path d="M5.74167 10.0026C5.90057 9.90669 6.09951 9.90669 6.25841 10.0026L9.10554 11.721C9.4842 11.9496 9.95131 11.6101 9.85083 11.1793L9.09527 7.94056C9.0531 7.75981 9.11453 7.57058 9.25481 7.44905L11.771 5.26927C12.1053 4.97966 11.9266 4.43053 11.4859 4.39314L8.17381 4.11215C7.98902 4.09647 7.82808 3.9798 7.75572 3.80905L6.4604 0.752842C6.28811 0.346327 5.71197 0.346327 5.53968 0.752841L4.24437 3.80905C4.172 3.9798 4.01106 4.09647 3.82627 4.11215L0.51419 4.39314C0.0734771 4.43053 -0.105228 4.97966 0.229071 5.26927L2.74527 7.44905C2.88555 7.57058 2.94698 7.75981 2.90481 7.94056L2.14925 11.1793C2.04877 11.6101 2.51588 11.9496 2.89454 11.721L5.74167 10.0026Z" fill="#FDB022"/>
</svg>
