<svg width="24" height="24" viewBox="0 0 24 24" fill="none" xmlns="http://www.w3.org/2000/svg">
<path d="M11.4826 20.0039C11.8004 19.8121 12.1983 19.8121 12.5161 20.0039L18.2104 23.4407C18.9677 23.8978 19.9019 23.2188 19.7009 22.3574L18.1898 15.8798C18.1055 15.5183 18.2283 15.1399 18.5089 14.8968L23.5413 10.5373C24.2099 9.95804 23.8525 8.85978 22.9711 8.785L16.3469 8.22301C15.9773 8.19165 15.6554 7.95832 15.5107 7.61682L12.9201 1.5044C12.5755 0.691373 11.4232 0.691373 11.0786 1.5044L8.488 7.61682C8.34326 7.95832 8.0214 8.19165 7.65182 8.22301L1.02765 8.785C0.146222 8.85978 -0.211188 9.95804 0.45741 10.5373L5.48981 14.8968C5.77037 15.1399 5.89322 15.5183 5.80889 15.8798L4.29776 22.3574C4.0968 23.2188 5.03103 23.8978 5.78835 23.4407L11.4826 20.0039Z" fill="#DC6803"/>
</svg>
