<svg width="24" height="24" viewBox="0 0 24 24" fill="none" xmlns="http://www.w3.org/2000/svg">
<path d="M11.4826 20.0054C11.8004 19.8136 12.1983 19.8136 12.5161 20.0054L18.2104 23.4422C18.9677 23.8993 19.9019 23.2203 19.7009 22.3589L18.1898 15.8813C18.1055 15.5198 18.2283 15.1413 18.5089 14.8983L23.5413 10.5387C24.2099 9.95951 23.8525 8.86125 22.9711 8.78647L16.3469 8.22447C15.9773 8.19312 15.6554 7.95978 15.5107 7.61828L12.9201 1.50587C12.5755 0.692838 11.4232 0.692838 11.0786 1.50587L8.488 7.61828C8.34326 7.95978 8.0214 8.19312 7.65182 8.22447L1.02765 8.78647C0.146222 8.86125 -0.211188 9.95951 0.45741 10.5387L5.48981 14.8983C5.77037 15.1413 5.89322 15.5198 5.80889 15.8813L4.29776 22.3589C4.0968 23.2203 5.03103 23.8993 5.78835 23.4422L11.4826 20.0054Z" fill="#85A471"/>
</svg>
