<svg width="20" height="18" viewBox="0 0 20 18" fill="none" xmlns="http://www.w3.org/2000/svg">
<path d="M19.1666 1.50008C18.3686 2.06298 17.485 2.4935 16.5499 2.77508C16.048 2.198 15.381 1.78899 14.6391 1.60335C13.8972 1.41771 13.1162 1.46441 12.4017 1.73712C11.6871 2.00984 11.0736 2.49541 10.6441 3.12818C10.2145 3.76094 9.98967 4.51036 9.99992 5.27508V6.10841C8.53545 6.14639 7.08431 5.82159 5.77576 5.16295C4.4672 4.50431 3.34185 3.53228 2.49992 2.33341C2.49992 2.33341 -0.833415 9.83341 6.66658 13.1667C4.95036 14.3317 2.90588 14.9159 0.833252 14.8334C8.33325 19.0001 17.4999 14.8334 17.4999 5.25008C17.4991 5.01796 17.4768 4.78641 17.4333 4.55841C18.2838 3.71966 18.8839 2.66067 19.1666 1.50008Z" stroke="#344054" stroke-width="1.5" stroke-linecap="round" stroke-linejoin="round"/>
</svg>
