<svg xmlns="http://www.w3.org/2000/svg" xmlns:xlink="http://www.w3.org/1999/xlink" version="1.1" width="1000" height="1000" viewBox="0 0 1000 1000" xml:space="preserve">
<desc>Created with Fabric.js 3.5.0</desc>
<defs>
</defs>
<rect x="0" y="0" width="100%" height="100%" fill="rgba(255,255,255,0)"/>
<g transform="matrix(38.2338 0 0 38.2338 499.9995 499.9996)" id="775158">
<path style="stroke: none; stroke-width: 1; stroke-dasharray: none; stroke-linecap: butt; stroke-dashoffset: 0; stroke-linejoin: miter; stroke-miterlimit: 4; is-custom-font: none; font-file-url: none; fill: rgb(255,255,255); fill-rule: nonzero; opacity: 1;" vector-effect="non-scaling-stroke" transform=" translate(-11.9994, -12.2411)" d="M 11.4826 20.0039 C 11.8004 19.8121 12.1983 19.8121 12.5161 20.0039 L 18.2104 23.4407 C 18.9677 23.8978 19.9019 23.2188 19.7009 22.3574 L 18.1898 15.8798 C 18.1055 15.5183 18.2283 15.1399 18.5089 14.8968 L 23.5413 10.5373 C 24.2099 9.95804 23.8525 8.85978 22.9711 8.785 L 16.3469 8.22301 C 15.9773 8.19165 15.6554 7.95832 15.5107 7.61682 L 12.9201 1.5044 C 12.5755 0.691373 11.4232 0.691373 11.0786 1.5044 L 8.488 7.61682 C 8.34326 7.95832 8.0214 8.19165 7.65182 8.22301 L 1.02765 8.785 C 0.146222 8.85978 -0.211188 9.95804 0.45741 10.5373 L 5.48981 14.8968 C 5.77037 15.1399 5.89322 15.5183 5.80889 15.8798 L 4.29776 22.3574 C 4.0968 23.2188 5.03103 23.8978 5.78835 23.4407 L 11.4826 20.0039 Z" stroke-linecap="round"/>
</g>
</svg>