<svg width="20" height="15" viewBox="0 0 20 15" fill="none" xmlns="http://www.w3.org/2000/svg">
<path d="M18.7832 3.34992C18.6843 2.95443 18.4826 2.59206 18.1988 2.29942C17.9149 2.00679 17.5589 1.79424 17.1666 1.68325C15.7332 1.33325 9.99991 1.33325 9.99991 1.33325C9.99991 1.33325 4.26657 1.33325 2.83324 1.71659C2.44095 1.82757 2.08489 2.04012 1.80103 2.33276C1.51717 2.6254 1.31556 2.98776 1.21657 3.38325C0.954252 4.83788 0.825937 6.31351 0.83324 7.79159C0.823889 9.28079 0.952213 10.7677 1.21657 12.2333C1.32571 12.6165 1.53183 12.965 1.81503 13.2453C2.09822 13.5256 2.44892 13.7281 2.83324 13.8333C4.26657 14.2166 9.99991 14.2166 9.99991 14.2166C9.99991 14.2166 15.7332 14.2166 17.1666 13.8333C17.5589 13.7223 17.9149 13.5097 18.1988 13.2171C18.4826 12.9244 18.6843 12.5621 18.7832 12.1666C19.0435 10.7229 19.1718 9.25853 19.1666 7.79159C19.1759 6.30238 19.0476 4.8155 18.7832 3.34992Z" stroke="#344054" stroke-width="1.5" stroke-linecap="round" stroke-linejoin="round"/>
<path d="M8.12491 10.5166L12.9166 7.79159L8.12491 5.06658V10.5166Z" stroke="#344054" stroke-width="1.5" stroke-linecap="round" stroke-linejoin="round"/>
</svg>
