<svg width="160" height="64" viewBox="0 0 160 64" fill="none" xmlns="http://www.w3.org/2000/svg">
<path d="M11.2444 24.9673C11.2444 23.3085 12.6667 22.6705 15.0222 22.6705C18.4 22.6705 22.6667 23.6488 26.0444 25.3927V15.3972C22.3556 13.9936 18.7111 13.4407 15.0222 13.4407C6 13.4407 0 17.9492 0 25.4777C0 37.217 16.8889 35.3456 16.8889 40.4071C16.8889 42.3636 15.1111 43.0016 12.6222 43.0016C8.93333 43.0016 4.22222 41.5555 0.488889 39.5989V49.722C4.62222 51.4233 8.8 52.1464 12.6222 52.1464C21.8667 52.1464 28.2222 47.7654 28.2222 40.1519C28.1778 27.4768 11.2444 29.7311 11.2444 24.9673ZM41.2889 4.93392L30.4444 7.14567L30.4 41.2152C30.4 47.5102 35.3333 52.1464 41.9111 52.1464C45.5556 52.1464 48.2222 51.5084 49.6889 50.7428V42.1084C48.2667 42.6614 41.2444 44.6179 41.2444 38.3229V23.2234H49.6889V14.1637H41.2444L41.2889 4.93392ZM63.5111 17.3112L62.8 14.1637H53.2V51.3808H64.3111V26.1583C66.9333 22.8832 71.3778 23.4786 72.7556 23.9465V14.1637C71.3333 13.6533 66.1333 12.7176 63.5111 17.3112ZM75.4667 14.1637H86.6222V51.3808H75.4667V14.1637ZM75.4667 10.9312L86.6222 8.63435V0L75.4667 2.25429V10.9312ZM109.822 13.4407C105.467 13.4407 102.667 15.3972 101.111 16.7583L100.533 14.1212H90.7556V63.7156L101.867 61.4613L101.911 49.4242C103.511 50.5301 105.867 52.1038 109.778 52.1038C117.733 52.1038 124.978 45.979 124.978 32.4958C124.933 20.161 117.6 13.4407 109.822 13.4407ZM107.156 42.7464C104.533 42.7464 102.978 41.8532 101.911 40.7473L101.867 24.9673C103.022 23.7338 104.622 22.8832 107.156 22.8832C111.2 22.8832 114 27.2216 114 32.7935C114 38.493 111.244 42.7464 107.156 42.7464ZM160 32.9211C160 22.0325 154.489 13.4407 143.956 13.4407C133.378 13.4407 126.978 22.0325 126.978 32.8361C126.978 45.6387 134.533 52.1038 145.378 52.1038C150.667 52.1038 154.667 50.9554 157.689 49.3392V40.8324C154.667 42.2786 151.2 43.1718 146.8 43.1718C142.489 43.1718 138.667 41.7256 138.178 36.7066H159.911C159.911 36.1537 160 33.9419 160 32.9211ZM138.044 28.8804C138.044 24.0741 141.111 22.075 143.911 22.075C146.622 22.075 149.511 24.0741 149.511 28.8804H138.044Z" fill="#6772E5"/>
</svg>